<svg xmlns="http://www.w3.org/2000/svg" width="800" height="800" fill="none" viewBox="0 0 800 800">
  <path fill="#E6EEF4" d="M662.069 0H137.931c-15.24 0-27.586 12.345-27.586 27.586v744.828c0 15.241 12.346 27.586 27.586 27.586h524.138c15.24 0 27.586-12.345 27.586-27.586V27.586C689.655 12.346 677.311 0 662.069 0Z"/>
  <path fill="#D71E00" d="M634.483 758.62c7.617 0 13.793-6.175 13.793-13.793V55.172c0-7.617-6.175-13.794-13.793-13.794H165.517c-7.617 0-13.794 6.175-13.794 13.794v689.656c0 7.617 6.175 13.794 13.794 13.794h468.966v-.002Zm-455.172-13.792V55.172l-13.794 13.794h468.966l-13.794-13.794v689.656l13.794-13.794H165.517l13.794 13.794Z"/>
  <path fill="#D71E00" d="M155.767 163.088c-5.386 5.385-5.386 14.12 0 19.506 5.386 5.386 14.12 5.386 19.506 0L292.942 64.925c5.386-5.386 5.386-14.12 0-19.506-5.386-5.386-14.12-5.386-19.506 0L155.767 163.088Zm254.206-98.155c5.386-5.386 5.386-14.12 0-19.506-5.386-5.386-14.12-5.386-19.506 0L155.764 280.13c-5.386 5.386-5.386 14.12 0 19.506 5.386 5.386 14.12 5.386 19.506 0L409.973 64.933Zm117.048-.01c5.386-5.386 5.386-14.12 0-19.506-5.386-5.386-14.12-5.386-19.506 0L155.764 397.17c-5.386 5.386-5.386 14.12 0 19.506 5.386 5.386 14.12 5.386 19.506 0L527.021 64.923Zm117.035.004c5.386-5.386 5.386-14.12 0-19.507-5.386-5.386-14.121-5.386-19.507 0L155.764 514.206c-5.386 5.386-5.386 14.121 0 19.506 5.386 5.386 14.12 5.386 19.506 0L644.056 64.927Zm.179 116.857c5.386-5.386 5.386-14.12 0-19.506-5.385-5.386-14.12-5.386-19.506 0L155.764 631.244c-5.386 5.386-5.386 14.12 0 19.506 5.386 5.386 14.12 5.386 19.506 0l468.965-468.966Zm.007 117.035c5.386-5.386 5.386-14.121 0-19.507-5.386-5.385-14.12-5.385-19.506 0L179.37 724.677c-5.386 5.385-5.386 14.12 0 19.506 5.386 5.386 14.12 5.386 19.506 0l445.366-445.364Zm-358.23 436.254c-5.386 5.386-5.386 14.121 0 19.507 5.386 5.386 14.12 5.386 19.506 0l338.718-338.717c5.385-5.386 5.385-14.121 0-19.507-5.386-5.386-14.121-5.386-19.507 0L286.012 735.073Zm117.035.004c-5.386 5.386-5.386 14.12 0 19.506 5.386 5.386 14.12 5.386 19.506 0L644.236 532.9c5.386-5.386 5.386-14.12 0-19.506-5.386-5.386-14.12-5.386-19.506 0L403.047 735.077Zm241.195-85.144c5.386-5.386 5.386-14.12 0-19.506-5.386-5.386-14.12-5.386-19.506 0L520.087 735.075c-5.386 5.386-5.386 14.12 0 19.506 5.386 5.386 14.121 5.386 19.507 0l104.648-104.648Z"/>
</svg>
